<svg width="17" height="16" viewBox="0 0 17 16" fill="none" xmlns="http://www.w3.org/2000/svg">
<path d="M7.48759 0.725527C7.74953 -0.0415927 8.83407 -0.0415753 9.09599 0.725556L10.3957 4.53222C10.5547 4.99775 10.9927 5.31153 11.4846 5.31154L15.5813 5.31161C16.4148 5.31163 16.7503 6.3864 16.0646 6.86045L12.837 9.09183C12.4139 9.38435 12.2364 9.9224 12.4025 10.4092L13.6553 14.0792C13.9198 14.8548 13.0414 15.5189 12.3672 15.0528L8.94538 12.6865C8.55193 12.4145 8.03124 12.4146 7.63776 12.6865L4.21585 15.0526C3.54165 15.5187 2.6632 14.8546 2.92778 14.079L4.18077 10.4091C4.34684 9.92227 4.16931 9.3842 3.74623 9.09167L0.518729 6.86017C-0.166927 6.38609 0.16857 5.31133 1.00216 5.31135L5.09883 5.31142C5.59075 5.31143 6.02876 4.99767 6.18772 4.53214L7.48759 0.725527Z" fill="#FFFBF3" stroke="black" stroke-width="0.3"/>
</svg>
